<?xml version="1.0" encoding="iso-8859-1"?>
<!-- Generator: Adobe Illustrator 29.7.1, SVG Export Plug-In . SVG Version: 9.03 Build 0)  -->
<svg version="1.1" id="Layer_1" xmlns="http://www.w3.org/2000/svg" xmlns:xlink="http://www.w3.org/1999/xlink" x="0px" y="0px"
	 viewBox="0 0 1024 1024" style="enable-background:new 0 0 1024 1024;" xml:space="preserve">
<style type="text/css">
	.st0{fill:#FFFFFF;}
	.st1{fill:#DA305E;}
</style>
<g id="Symbol_layer">
	<g>
		<g>
			<path class="st0" d="M655.8704834,539.7817383c-1.6502686-17.1590576-9.3641968-32.4250488-20.3179321-40.469696
				c-1.9546509-6.9230957-5.1188965-13.075592-9.4301758-18.3387146
				c-0.6474609-8.085144-4.0949097-23.8850708-20.0188599-37.8191833c1.7716675-1.5667114,3.4439087-3.4509888,4.6350098-5.6466675
				c13.2963867-5.9387207,22.6710815-18.4090881,23.7584229-27.6835327
				c7.0910645-7.09552,11.1525269-15.4850159,11.492981-23.8323059c0.1610107-3.9348145-0.5480347-7.6030579-2.032959-10.7285767
				c5.8701172-6.3416138,7.80896-13.8144836,5.3132935-21.0419617
				c-3.9699707-11.499176-17.8786011-18.9632568-36.5603638-19.7549744
				c-5.0089111-4.5699158-11.9900513-6.9705811-20.3575439-6.9705811c-3.5767822,0-7.3339233,0.4653625-10.9898682,1.3529663
				c-2.9953003-1.4374084-6.6741333-2.1877747-10.8024902-2.1877747c-7.0013428,0-14.6783447,2.1191406-20.6091309,5.6176453
				c-0.8101807-0.1073303-1.640625-0.1609802-2.4877319-0.1609802c-9.2744751-0.000885-18.5454102,6.3899841-23.2455444,10.1990051
				c-4.6570435,3.7729492-8.8654175,8.1810303-12.217865,12.7289734c-3.351593-4.5470581-7.5608521-8.9551392-12.2170105-12.7280884
				c-4.7001343-3.809021-13.9710693-10.1990051-23.2446594-10.1998901c-0.8471375,0-1.6784363,0.0536499-2.4886169,0.1609802
				c-5.9308167-3.4976196-13.6077881-5.6176453-20.6082764-5.6176453c-4.1283264,0-7.8080444,0.7503662-10.8033447,2.1877747
				c-3.6559448-0.8876038-7.4121704-1.3529663-10.9898376-1.3529663c-8.3666382,0-15.3486633,2.4006653-20.3575745,6.9705811
				c-18.6826477,0.7917175-32.5912476,8.2557983-36.5612488,19.7558594
				c-2.4956665,7.2274475-0.5568542,14.6994629,5.3132629,21.0410767c-1.4848938,3.1263733-2.1930542,6.7946472-2.032074,10.7294617
				c0.3404541,8.348175,4.4028015,16.7367859,11.493042,23.8314209c1.0872803,9.2753296,10.4620361,21.744812,23.7583923,27.6835327
				c1.1902161,2.1956787,2.8624878,4.079071,4.6341553,5.6466675
				c-15.9230957,13.9341125-19.3705444,29.7340393-20.0180054,37.8191833
				c-4.3113098,5.2613831-7.4746399,11.4147339-9.4301758,18.3387146
				c-10.9537659,8.0446472-18.6676941,23.3106384-20.3179626,40.4687805
				c-1.6405945,17.0552368,3.0384216,32.977478,12.5618286,43.0629883c1.3045654,7.6531982,5.6651306,17.668396,10.3555908,23.77948
				c0.9421387,12.9269409,6.4480591,25.6779175,15.6213684,36.0941772
				c9.2357483,10.4875488,21.414917,17.7123413,34.4465027,20.4701538
				c7.8713989,7.362915,16.2485657,12.545105,27.5498352,17.0543823
				c4.9332275,4.9728394,19.313385,16.9346924,43.3348083,16.9346924c24.0205383,0,38.4015198-11.961853,43.3356628-16.9346924
				c11.3012695-4.5101318,19.6793213-9.6923218,27.5498047-17.0543823
				c13.0307007-2.7578125,25.2098999-9.982605,34.4456787-20.4701538
				c9.1732788-10.4162598,14.6791992-23.1672363,15.6213379-36.0932617
				c4.6913452-6.1119995,9.0518799-16.1271973,10.3555908-23.7803955
				C652.8312378,572.7583008,657.5102539,556.8360596,655.8704834,539.7817383z"/>
		</g>
	</g>
	<g>
		<path class="st1" d="M546.9204102,351.5218506c0.9946289-0.3030701,1.9667358,0.5297241,1.871521,1.5648804
			c-0.4672241,4.4062805,2.1984863,3.8514099,2.8284302,3.0683289c6.9396973-8.6287537,14.2901611-10.5919495,20.87146-10.0123596
			c1.1571045,0.1017456,1.7098389,1.4508362,1.0079956,2.3762512c-2.6149902,3.8787231,0.2008667,4.6161804,1.2433472,3.9194031
			c10.680603-6.6777344,20.8688965-6.6898804,24.7792969-3.8850098c0.7581177,0.5438538,0.7853394,1.667572,0.0876465,2.2871704
			c-3.9525146,3.3673096-1.7399292,5.0435181-0.3439941,4.5324707c10.8433228-3.8266907,25.8131104-0.4413147,31.0351562,3.9738464
			c0.6921997,0.5852051,0.71521,1.6446838,0.0371704,2.2459717c-6.6001587,5.8487244-9.84375,10.5470581-11.3231201,19.7521057
			c-0.2945557,2.5970459,4.0150757,2.0506897,5.8336792,1.5828247c0.9051514-0.2329712,1.8100586,0.4406738,1.8346558,1.3750916
			c0.1640015,6.2424316-5.7398071,13.1042175-14.5238037,18.9720459c-1.1763916,0.7858276-1.0092773,2.6714478,1.6757812,2.7409058
			c1.2125244,0.0910339,1.7731323,1.2190552,1.2494507,2.1914062c-3.1324463,5.8143311-7.392334,11.2885742-21.9014282,15.0477905
			c-1.3825684,0.3582458-1.4924316,2.2445068-0.204834,2.8048706c1.2875977,0.5603333,1.3016968,1.7929993,0.4630127,2.5134583
			c-14.446106,12.4108276-51.0643311,7.5181274-55.7124634-13.3701477
			c-0.0925903-0.4169617,0.0073242-0.8530579,0.2634277-1.1949768
			c8.6890869-11.5905762,28.8866577-34.2730103,60.7255249-46.2033081c1.2922974-0.4841919,0.7931519-2.4259338-0.5718994-2.2232056
			c-30.9244995,4.5937195-52.7008667,21.7817688-65.9472656,39.7573547
			c-0.4373779,0.593689-1.2342529,0.7667542-1.8898315,0.4284973
			C506.8370056,393.6487427,526.1116943,357.8651123,546.9204102,351.5218506z"/>
	</g>
	<g>
		<path class="st1" d="M408.9151001,408.2071838c-0.5239868-0.9723511,0.0368958-2.1003723,1.2491455-2.1914062
			c2.6853333-0.069458,2.852478-1.9550781,1.6758118-2.7409058c-8.7839966-5.8678284-14.6878052-12.7296143-14.5235291-18.9720459
			c0.0245972-0.9344177,0.9292297-1.6080627,1.8346252-1.3750916c1.8183594,0.467865,6.1279602,1.0142212,5.8334045-1.5828247
			c-1.4790649-9.2050476-4.7229309-13.9033813-11.3228455-19.7521057c-0.6783142-0.6012878-0.655304-1.6607666,0.0368958-2.2459717
			c5.2220764-4.4151611,20.191864-7.8005371,31.0354614-3.9738464c1.3956299,0.5110474,3.6082458-1.1651611-0.3439941-4.5324707
			c-0.6976929-0.6195984-0.6707458-1.7433167,0.0873718-2.2871704c3.9106445-2.8048706,14.0986633-2.7927246,24.7792664,3.8850098
			c1.0424805,0.6967773,3.8583679-0.0406799,1.2436523-3.9194031c-0.7018738-0.925415-0.1491089-2.2745056,1.0076904-2.3762512
			c6.581604-0.5795898,13.9320374,1.383606,20.8717651,10.0123596c0.6296692,0.7830811,3.2956543,1.3379517,2.8284302-3.0683289
			c-0.0952148-1.0351562,0.8768921-1.8679504,1.8712158-1.5648804c20.8089905,6.3432617,40.0836792,42.1268921,16.611084,54.2456665
			c-0.655304,0.3382568-1.4523926,0.1651917-1.889801-0.4284973
			c-13.2463684-17.9755859-35.0224915-35.1636353-65.9470215-39.7573547
			c-1.3650513-0.2027283-1.8644409,1.7390137-0.5718689,2.2232056
			c31.8388367,11.9302979,52.0364685,34.6127319,60.7254944,46.2033081
			c0.2561035,0.3419189,0.3557739,0.7780151,0.2631836,1.1949768
			c-4.6481018,20.8882751-41.2663879,25.7809753-55.7124634,13.3701477c-0.8386841-0.720459-0.8243103-1.953125,0.4630432-2.5134583
			c1.2875977-0.5603638,1.1777039-2.4466248-0.2045898-2.8048706
			C416.3074036,419.4957581,412.0472412,414.0215149,408.9151001,408.2071838z"/>
	</g>
	<g>
		<path class="st1" d="M604.4779663,472.0637817c6.0188599,16.0122986,1.3299561,23.7110596-12.9484253,15.5597229
			c-11.276001-6.1491699-21.9335938-15.1198425-29.9877319-25.1363831
			c-10.7549438-12.7782288-3.7649536-18.4701233,13.1767578-15.4009094
			C587.3463135,450.149292,599.2901611,460.1655579,604.4779663,472.0637817z"/>
	</g>
	<g>
		<path class="st1" d="M540.4361572,454.0498657c20.4189453,16.9713135-2.975708,28.9854431-28.4362183,28.9854431
			c-25.4604797,0-48.8548584-12.0141296-28.4359131-28.9854431c12.2334595-9.5927429,23.9309082-10.008667,28.4359131-10.008667
			C516.505249,444.0411987,528.2023926,444.4571228,540.4361572,454.0498657z"/>
	</g>
	<g>
		<path class="st1" d="M419.5222168,472.0637817c5.1875305-11.8982239,17.1316528-21.9144897,29.7590942-24.9775696
			c16.9417419-3.0692139,23.9319763,2.6226807,13.1768188,15.4009094
			c-8.0541687,10.0165405-18.7117615,18.9872131-29.9877625,25.1363831
			C418.1922302,495.7748413,413.5033264,488.0760803,419.5222168,472.0637817z"/>
	</g>
	<g>
		<path class="st1" d="M389.9865112,561.0371704c-4.7166443-12.3436279-3.5412903-27.3571167,3.3934631-38.8994751
			c7.5440369-12.8357849,15.1367188-12.3247375,18.1503601-1.4506836
			c3.8836975,14.3580322,2.3865662,31.4844971-3.9302979,44.9505005
			C402.0133057,576.7420654,395.0259705,572.9893799,389.9865112,561.0371704z"/>
	</g>
	<g>
		<path class="st1" d="M444.386261,644.1781006c-18.1087646-3.815918-33.4890137-22.0592651-34.1835632-40.5579224
			C413.0350342,537.7203369,508.0105591,655.4072876,444.386261,644.1781006z"/>
	</g>
	<g>
		<path class="st1" d="M446.319458,562.1010742c-15.9269409-9.1953125-20.1418152-31.7128906-9.4138184-50.2944336
			c10.7279663-18.5813599,32.335968-26.1902771,48.2628784-16.994812
			c15.9269409,9.1953735,20.1418152,31.7130737,9.4138489,50.2944336
			C483.8543701,563.6876831,462.2458801,571.2965698,446.319458,562.1010742z"/>
	</g>
	<g>
		<path class="st1" d="M538.5769653,669.3286133c-7.4762573,5.3934326-16.6524048,8.572876-26.5770264,8.572876
			c-9.9245605,0-19.100708-3.1794434-26.5769958-8.572876c-15.7815552-10.8981323,0.0952148-23.437561,26.5769958-23.437561
			C538.4817505,645.8910522,554.3587646,658.430481,538.5769653,669.3286133z"/>
	</g>
	<g>
		<ellipse class="st1" cx="511.999939" cy="597.6918945" rx="36.9691772" ry="31.6880493"/>
	</g>
	<g>
		<path class="st1" d="M529.4175415,545.1062622c-10.7279663-18.5813599-6.5131226-41.0990601,9.4138184-50.2944336
			c15.9269409-9.1954651,37.5349121-1.5865479,48.2629395,16.994812
			c10.7279663,18.581543,6.5130615,41.0991211-9.4138794,50.2944336
			C561.7540283,571.2965698,540.1455078,563.6876831,529.4175415,545.1062622z"/>
	</g>
	<g>
		<path class="st1" d="M579.6136475,644.1781006c-63.6242676,11.229187,31.3511963-106.4577637,34.1838379-40.5579224
			C613.1029053,622.1188354,597.7226562,640.3621826,579.6136475,644.1781006z"/>
	</g>
	<g>
		<path class="st1" d="M634.0136719,561.0371704c-5.0397339,11.9522095-12.0270996,15.704895-17.6138306,4.6003418
			c-6.3168335-13.4660034-7.8137207-30.5924683-3.9299927-44.9505005
			c3.0133667-10.874054,10.6060791-11.3851013,18.1500854,1.4506836
			C637.5549316,533.6800537,638.7300415,548.6935425,634.0136719,561.0371704z"/>
	</g>
</g>
</svg>
