<?xml version="1.0" encoding="iso-8859-1"?>
<!-- Generator: Adobe Illustrator 29.7.1, SVG Export Plug-In . SVG Version: 9.03 Build 0)  -->
<svg version="1.1" id="Layer_1" xmlns="http://www.w3.org/2000/svg" xmlns:xlink="http://www.w3.org/1999/xlink" x="0px" y="0px"
	 viewBox="0 0 1024 1024" style="enable-background:new 0 0 1024 1024;" xml:space="preserve">
<style type="text/css">
	.st0{fill:#FFFFFF;}
</style>
<path class="st0" d="M655.8704834,539.7817383c-1.6502686-17.1590576-9.3641968-32.4250488-20.3179321-40.4697266
	c-1.9546509-6.9230957-5.1188965-13.0755615-9.4301758-18.3386841c-0.6474609-8.085144-4.0949097-23.8850708-20.0188599-37.8192139
	c1.7716675-1.5667114,3.4439087-3.4509888,4.6350098-5.6466675c13.2963867-5.9387207,22.6710815-18.4090576,23.7584229-27.6835327
	c7.0910645-7.09552,11.1525269-15.4849854,11.492981-23.8322754c0.1610107-3.9348145-0.5480347-7.6030884-2.032959-10.7285767
	c5.8701172-6.3416138,7.80896-13.8145142,5.3132935-21.0419922c-3.9699707-11.4991455-17.8786011-18.9632568-36.5603638-19.7549438
	c-5.0089111-4.5699463-11.9900513-6.9705811-20.3575439-6.9705811c-3.5767822,0-7.3339233,0.465332-10.9898682,1.3529663
	c-2.9953003-1.437439-6.6741333-2.1878052-10.8024902-2.1878052c-7.0013428,0-14.6783447,2.1191406-20.6091309,5.6176758
	c-0.8101807-0.1073608-1.640625-0.1610107-2.4877319-0.1610107c-9.2744751-0.0008545-18.5454102,6.3900146-23.2455444,10.1990356
	c-4.6570435,3.7729492-8.8654175,8.1810303-12.2178345,12.7289429c-3.3516235-4.5470581-7.5608521-8.9551392-12.217041-12.7280884
	c-4.7001343-3.809021-13.9710693-10.1989746-23.2446289-10.1998901c-0.847168,0-1.6784668,0.0536499-2.4886475,0.1610107
	c-5.9307861-3.4976196-13.6077881-5.6176758-20.6082764-5.6176758c-4.1282959,0-7.8080444,0.7503662-10.8033447,2.1878052
	c-3.6559448-0.8876343-7.4121704-1.3529663-10.9898071-1.3529663c-8.3666382,0-15.3486938,2.4006348-20.357605,6.9705811
	c-18.6826172,0.791687-32.5912476,8.2557983-36.5612183,19.7558594c-2.4956665,7.227417-0.5568848,14.6994629,5.3132324,21.0410767
	c-1.4848633,3.1263428-2.1930542,6.7946167-2.0320435,10.7294312c0.3404541,8.3482056,4.402771,16.7368164,11.493042,23.8314209
	c1.0872803,9.2753296,10.4620361,21.744812,23.7583618,27.6835327c1.1902466,2.1956787,2.8624878,4.0791016,4.6341553,5.6466675
	c-15.9230957,13.9341431-19.3705444,29.7340698-20.0180054,37.8192139
	c-4.3112793,5.2613525-7.4746094,11.4147339-9.4301758,18.3386841
	c-10.9537354,8.0446777-18.6676636,23.3106689-20.3179321,40.468811
	c-1.640625,17.0552368,3.0383911,32.977478,12.5618286,43.0629883c1.3045654,7.6531982,5.6651001,17.668396,10.3555908,23.77948
	c0.9421387,12.9269409,6.4480591,25.6779175,15.6213379,36.0941772
	c9.2357788,10.4875488,21.414917,17.7123413,34.4465332,20.4701538c7.8713989,7.362915,16.2485352,12.545105,27.5498047,17.0543823
	c4.9332275,4.9728394,19.3134155,16.9346924,43.3348389,16.9346924c24.0205078,0,38.4014893-11.961853,43.3356323-16.9346924
	c11.3012695-4.5101318,19.6793213-9.6923218,27.5498047-17.0543823c13.0307007-2.7578125,25.2098999-9.982605,34.4456787-20.4701538
	c9.1732788-10.4162598,14.6791992-23.1672363,15.6213379-36.0932617
	c4.6913452-6.1119995,9.0518799-16.1271973,10.3555908-23.7803955
	C652.8312378,572.7583008,657.5102539,556.8360596,655.8704834,539.7817383z M591.529541,487.6234741
	c-11.276001-6.1491699-21.9335938-15.119812-29.9877319-25.1363525
	c-10.7549438-12.7782593-3.7649536-18.4701538,13.1767578-15.4009399
	c12.6277466,3.0631104,24.5715942,13.0793457,29.7593994,24.9776001
	C610.4968262,488.0760498,605.8079224,495.7748413,591.529541,487.6234741z M546.9204102,351.5218506
	c0.9946289-0.3031006,1.9667358,0.5297241,1.871521,1.5648804c-0.4672241,4.40625,2.1984863,3.8513794,2.8284302,3.0682983
	c6.9396973-8.6287231,14.2901611-10.5919189,20.87146-10.0123291c1.1571045,0.1017456,1.7098389,1.4508057,1.0079956,2.3762207
	c-2.6149902,3.8787231,0.2008667,4.6162109,1.2433472,3.9194336c10.680603-6.6777344,20.8688965-6.6898804,24.7792969-3.8850098
	c0.7581177,0.5438232,0.7853394,1.6675415,0.0876465,2.2871704c-3.9525146,3.3673096-1.7399292,5.0435181-0.3439941,4.5324707
	c10.8433228-3.8267212,25.8131104-0.4413452,31.0351562,3.9738159c0.6921997,0.5852051,0.71521,1.6447144,0.0371704,2.2459717
	c-6.6001587,5.8487549-9.84375,10.5470581-11.3231201,19.7521362c-0.2945557,2.5970459,4.0150757,2.0506592,5.8336792,1.5828247
	c0.9051514-0.2329712,1.8100586,0.4406738,1.8346558,1.375061c0.1640015,6.2424316-5.7398071,13.104248-14.5238037,18.9720459
	c-1.1763916,0.7858276-1.0092773,2.6714478,1.6757812,2.7409058c1.2125244,0.0910645,1.7731323,1.2190552,1.2494507,2.1914062
	c-3.1324463,5.8143311-7.392334,11.2885742-21.9014282,15.0477905c-1.3825684,0.3582764-1.4924316,2.2445068-0.204834,2.8048706
	s1.3016968,1.7930298,0.4630127,2.5134888c-14.446106,12.4108276-51.0643311,7.5181274-55.7124634-13.3701782
	c-0.0925903-0.4169312,0.0073242-0.8530273,0.2634277-1.1949463c8.6890869-11.5905762,28.8866577-34.2730103,60.7255249-46.2033081
	c1.2922974-0.4841919,0.7931519-2.4259644-0.5718994-2.2232056c-30.9244995,4.593689-52.7008667,21.7817383-65.9472656,39.7573242
	c-0.4373779,0.593689-1.2342529,0.7667847-1.8898315,0.4285278
	C506.8370361,393.6487427,526.1116943,357.8651123,546.9204102,351.5218506z M511.999939,444.0411987
	c4.5053101,0,16.2024536,0.4158936,28.4362183,10.008667c20.4189453,16.9713135-2.975708,28.9854126-28.4362183,28.9854126
	c-25.4604492,0-48.8548584-12.0140991-28.4359131-28.9854126
	C495.7974854,444.4570923,507.4949341,444.0411987,511.999939,444.0411987z M408.9151001,408.2071533
	c-0.5239868-0.9723511,0.0369263-2.1003418,1.2491455-2.1914062c2.6853638-0.069458,2.852478-1.9550781,1.6758423-2.7409058
	c-8.7839966-5.8677979-14.6878052-12.7296143-14.5235596-18.9720459c0.0245972-0.9343872,0.9292603-1.6080322,1.8346558-1.375061
	c1.8183594,0.4678345,6.1279297,1.0142212,5.833374-1.5828247c-1.4790649-9.2050781-4.7229004-13.9033813-11.3228149-19.7521362
	c-0.6783447-0.6012573-0.6553345-1.6607666,0.0368652-2.2459717c5.2221069-4.4151611,20.1918945-7.8005371,31.0354614-3.9738159
	c1.3956299,0.5110474,3.6082764-1.1651611-0.3439941-4.5324707c-0.6976929-0.6196289-0.6707153-1.7433472,0.0874023-2.2871704
	c3.9106445-2.8048706,14.0986328-2.7927246,24.7792358,3.8850098c1.0424805,0.6967773,3.8583984-0.0407104,1.2436523-3.9194336
	c-0.7018433-0.925415-0.1491089-2.2744751,1.0076904-2.3762207c6.581604-0.5795898,13.9320679,1.383606,20.8717651,10.0123291
	c0.6296997,0.7830811,3.2956543,1.3379517,2.8284302-3.0682983c-0.0952148-1.0351562,0.8768921-1.867981,1.8712158-1.5648804
	c20.809021,6.3432617,40.0836792,42.1268921,16.611084,54.2456665c-0.6552734,0.3382568-1.4523926,0.1651611-1.8897705-0.4285278
	c-13.2463989-17.9755859-35.022522-35.1636353-65.9470215-39.7573242c-1.3650513-0.2027588-1.8644409,1.7390137-0.5718994,2.2232056
	c31.8388672,11.9302979,52.036499,34.6127319,60.7255249,46.2033081c0.2561035,0.3419189,0.3557739,0.7780151,0.2631836,1.1949463
	c-4.6481323,20.8883057-41.2664185,25.7810059-55.7124634,13.3701782c-0.8386841-0.720459-0.8243408-1.953125,0.4630127-2.5134888
	c1.2875977-0.5603638,1.1777344-2.4465942-0.2045898-2.8048706
	C416.3074341,419.4957275,412.0472412,414.0214844,408.9151001,408.2071533z M419.5222168,472.0637817
	c5.187561-11.8982544,17.1316528-21.9144897,29.7590942-24.9776001
	c16.9417725-3.0692139,23.9320068,2.6226807,13.1768188,15.4009399
	c-8.0541382,10.0165405-18.711731,18.9871826-29.9877319,25.1363525
	C418.1922607,495.7748413,413.5033569,488.0760498,419.5222168,472.0637817z M389.9865112,561.0371704
	c-4.7166138-12.3436279-3.5412598-27.3571167,3.3934937-38.8994751
	c7.5440063-12.8358154,15.1367188-12.3247681,18.1503296-1.4506836c3.883728,14.3580322,2.3865967,31.4844971-3.9302979,44.9505005
	C402.0133057,576.7420654,395.026001,572.9893799,389.9865112,561.0371704z M444.3862915,644.1781006
	c-18.1087646-3.815918-33.4890137-22.0592651-34.1835938-40.5579224
	C413.0350342,537.7203369,508.0105591,655.4072876,444.3862915,644.1781006z M446.319458,562.1010742
	c-15.9269409-9.1953125-20.1417847-31.7128906-9.4138184-50.2944336
	c10.7279663-18.5813599,32.3359985-26.1903076,48.2628784-16.994812
	c15.9269409,9.1953735,20.1418457,31.7130737,9.4138794,50.2944336
	C483.8543701,563.6876831,462.2459106,571.2965698,446.319458,562.1010742z M538.5769653,669.3286133
	c-7.4762573,5.3934326-16.6524048,8.572876-26.5770264,8.572876c-9.9245605,0-19.100708-3.1794434-26.5769653-8.572876
	c-15.7815552-10.8981323,0.0952148-23.437561,26.5769653-23.437561
	C538.4817505,645.8910522,554.3587646,658.430481,538.5769653,669.3286133z M511.999939,629.3799438
	c-20.4174805,0-36.9691772-14.1871948-36.9691772-31.6880493s16.5516968-31.6880493,36.9691772-31.6880493
	c20.4175415,0,36.9691772,14.1871948,36.9691772,31.6880493S532.4174805,629.3799438,511.999939,629.3799438z
	 M529.4175415,545.1062622c-10.7279663-18.5813599-6.5131226-41.0990601,9.4138184-50.2944336
	c15.9269409-9.1954956,37.5349121-1.5865479,48.2629395,16.994812c10.7279663,18.581543,6.5130615,41.0991211-9.4138794,50.2944336
	C561.7540283,571.2965698,540.1455078,563.6876831,529.4175415,545.1062622z M579.6136475,644.1781006
	c-63.6242676,11.229187,31.3511963-106.4577637,34.1838379-40.5579224
	C613.1029053,622.1188354,597.7226562,640.3621826,579.6136475,644.1781006z M634.0136719,561.0371704
	c-5.0397339,11.9522095-12.0270996,15.704895-17.6138306,4.6003418
	c-6.3168335-13.4660034-7.8137207-30.5924683-3.9299927-44.9505005
	c3.0133667-10.8740845,10.6060791-11.3851318,18.1500854,1.4506836
	C637.5549316,533.6800537,638.7300415,548.6935425,634.0136719,561.0371704z"/>
</svg>
