<?xml version="1.0" encoding="UTF-8"?>
<svg xmlns="http://www.w3.org/2000/svg" xmlns:xlink="http://www.w3.org/1999/xlink" width="40pt" height="40pt" viewBox="0 0 40 40" version="1.1">
<g id="surface1">
<path style=" stroke:none;fill-rule:nonzero;fill:rgb(0%,0%,0%);fill-opacity:1;" d="M 25 11.667969 L 25 18.332031 L 26.667969 18.332031 L 26.667969 21.667969 L 21.667969 21.667969 L 21.667969 8.332031 L 25 8.332031 L 20 1.667969 L 15 8.332031 L 18.332031 8.332031 L 18.332031 21.667969 L 13.332031 21.667969 L 13.332031 18.214844 C 14.507812 17.609375 15.332031 16.417969 15.332031 15 C 15.332031 12.976562 13.691406 11.332031 11.667969 11.332031 C 9.640625 11.332031 8 12.976562 8 15 C 8 16.417969 8.824219 17.609375 10 18.214844 L 10 21.667969 C 10 23.507812 11.492188 25 13.332031 25 L 18.332031 25 L 18.332031 30.082031 C 17.148438 30.691406 16.332031 31.910156 16.332031 33.332031 C 16.332031 35.359375 17.976562 37 20 37 C 22.023438 37 23.667969 35.359375 23.667969 33.332031 C 23.667969 31.910156 22.851562 30.691406 21.667969 30.082031 L 21.667969 25 L 26.667969 25 C 28.507812 25 30 23.507812 30 21.667969 L 30 18.332031 L 31.667969 18.332031 L 31.667969 11.667969 Z M 25 11.667969 "/>
</g>
</svg>
