<svg id="Layer_1" data-name="Layer 1" xmlns="http://www.w3.org/2000/svg" viewBox="0 0 40 40"><defs><style>.cls-1{fill:#f2c5c5;}.cls-2{fill:none;stroke:#f2c5c5;stroke-miterlimit:10;stroke-width:3px;}</style></defs><path class="cls-1" d="M20,16a4,4,0,1,1-4,4,4.00455,4.00455,0,0,1,4-4m0-2a6,6,0,1,0,6,6,6,6,0,0,0-6-6Z"/><path class="cls-2" d="M18.41429,7.42824,15.25814,3.11A17.506,17.506,0,0,0,7.742,7.45608l2.17348,4.88276a12.31422,12.31422,0,0,0-1.59722,2.75283l-5.29836.57179a17.50582,17.50582,0,0,0,.00577,8.68221l5.31534.5591a12.34163,12.34163,0,0,0,1.58374,2.75854L7.76287,32.55559a17.50588,17.50588,0,0,0,7.52189,4.33611L18.42662,32.568a12.34585,12.34585,0,0,0,3.18078.00781l3.15589,4.31881a17.506,17.506,0,0,0,7.51614-4.3461L30.106,27.66578a12.34511,12.34511,0,0,0,1.59709-2.7506l5.31778-.57412a17.50593,17.50593,0,0,0-.00576-8.68221l-5.31534-.5591a12.32179,12.32179,0,0,0-1.59627-2.77415l2.15518-4.87708a17.50589,17.50589,0,0,0-7.5219-4.33612L21.59487,7.43607A12.36027,12.36027,0,0,0,18.41429,7.42824Z"/></svg>