<?xml version="1.0" encoding="iso-8859-1"?>
<!-- Generator: Adobe Illustrator 30.0.0, SVG Export Plug-In . SVG Version: 9.03 Build 0)  -->
<svg version="1.1" id="Symbol_layer" xmlns="http://www.w3.org/2000/svg" xmlns:xlink="http://www.w3.org/1999/xlink" x="0px"
	 y="0px" viewBox="0 0 1024 1024" style="enable-background:new 0 0 1024 1024;" xml:space="preserve">
<style type="text/css">
	.st0{fill:#F4C52F;}
	.st1{fill:#6CA0D8;}
	.st2{fill:#DA305E;}
	.st3{fill:#DF4E55;}
	.st4{fill:#C44676;}
	.st5{fill:#FFFFFF;}
</style>
<g>
	<path class="st0" d="M176,116h-49.4803162C103.0367126,116,84,135.0367126,84,158.5196838v822.9605713
		C84,1004.9633179,103.0367126,1024,126.5196838,1024h598.9605713C748.9633179,1024,768,1004.9633179,768,981.4802856V960
		H213.333313C192.7146912,960,176,943.2852783,176,922.666687V116z"/>
	<path class="st1" d="M256,42.5196838V64h427.2026978c9.9014282,0,19.3973389,3.9333267,26.3986816,10.9347l127.4639893,127.4639511
		c7.0013428,7.001358,6.9346924,15.6999359,6.9346924,25.6013489v680h53.4802856
		c23.4830322,0,42.5197144-19.0366821,42.5197144-42.5197144v-691.868042c0-11.2769165-4.4797363-22.0919647-12.4537354-30.0659485
		L796.4537354,12.4537277C788.4797974,4.4797397,777.6647339,0,766.3878174,0L298.5196838,0
		C275.0367126,0,256,19.0367107,256,42.5196838z"/>
	<path class="st2" d="M760,964h49.4802856C832.9633179,964,852,944.9633179,852,921.4802856V900h-92V964z"/>
	<path class="st2" d="M264,60h-49.4803162C191.0367126,60,172,79.0367126,172,102.5196838V124h92V60z"/>
	<path class="st3" d="M261.3333435,864L264,116h-92v805.4802856C172,944.9633179,191.0367126,964,214.5196838,964H768v-62.666687
		H298.6666565c-20.6186218,0-37.3333435-16.7147217-37.3333435-37.333313H261.3333435z"/>
	<path class="st4" d="M256,60v62.6666718h341.8694458c9.9013672,0,19.3972778,3.9333191,26.3986206,10.9346771
		l127.4639893,127.4639587c7.0013428,7.0013428,10.9346924,16.4972534,10.9346924,26.3986511L764.000061,908h88V225.6122589
		c0-11.2769165-4.4797363-22.0919647-12.4537354-30.0659485L716.4537354,72.4537277
		C708.4797974,64.4797363,697.6647339,60,686.3878174,60H256.000061H256z"/>
	<path class="st2" d="M768,908V285.6122437c0-11.276947-4.4797363-22.09198-12.4537354-30.0659637L628.4537354,128.4537201
		C620.4797363,120.4797363,609.6646729,116,598.3877563,116H256v749.4802856C256,888.9633179,275.0367126,908,298.5196838,908H768z"
		/>
</g>
<path class="st5" d="M703.8273315,549.0422974c-2.2003784-22.8787231-12.4855957-43.2333374-27.0906372-53.9595642
	c-2.6062012-9.2307739-6.8251343-17.434082-12.5735474-24.4515991
	c-0.8632812-10.7801819-5.4598999-31.8467712-26.6918335-50.4255981c2.3622437-2.0889587,4.5919189-4.6013184,6.1800537-7.5289001
	c17.7285156-7.9183044,30.2281494-24.5454102,31.6778564-36.911377
	c9.4547729-9.4606628,14.8701172-20.6466675,15.3240356-31.7763977c0.2146606-5.2463989-0.7307129-10.1374207-2.7105713-14.3047791
	c7.8267822-8.4554749,10.4118652-18.419342,7.0843506-28.0559387c-5.293335-15.3322449-23.8381348-25.2843628-48.7471924-26.3399658
	c-6.6785278-6.0932617-15.9866943-9.2940979-27.1434326-9.2940979c-4.769043,0-9.7785034,0.6204529-14.6531372,1.8039246
	c-3.9937744-1.9165344-8.8988647-2.9170227-14.4033203-2.9170227c-9.335144,0-19.571106,2.825531-27.4788818,7.4901733
	c-1.0802612-0.1430969-2.1875-0.2146301-3.3169556-0.2146301c-12.3659668-0.0011597-24.7272339,8.519989-30.9940796,13.5986938
	c-6.2093506,5.0306091-11.8205566,10.90802-16.2904968,16.9719543
	c-4.4687805-6.0627441-10.0811462-11.9401855-16.2893372-16.9707947
	c-6.2668457-5.0786743-18.6281128-13.5986938-30.9928894-13.5998535c-1.1295166,0-2.237915,0.0715332-3.3181458,0.2146301
	c-7.9077454-4.6634827-18.1437073-7.4901733-27.4776917-7.4901733c-5.5044556,0-10.4107361,1.0004883-14.40448,2.9170227
	c-4.8746033-1.1834717-9.8829041-1.8039246-14.6531372-1.8039246c-11.1555176,0-20.4648743,3.2008667-27.1434021,9.2941284
	c-24.9101868,1.055603-43.4550171,11.0077209-48.7483521,26.3411255
	c-3.3275452,9.6365967-0.7424622,19.5992737,7.0843506,28.0547485c-1.9798584,4.1685181-2.9240417,9.0595398-2.7094116,14.3059387
	c0.4539185,11.1308899,5.8703918,22.3157349,15.3240356,31.7752075c1.449707,12.3671265,13.9493713,28.9930725,31.6778564,36.911377
	c1.5869446,2.9275818,3.8166504,5.4387817,6.1788635,7.5289001c-21.2307739,18.5788574-25.8274231,39.6454163-26.6906738,50.4255981
	c-5.7484131,7.0151672-9.9661865,15.219635-12.5735474,24.4515991
	c-14.6050415,10.7262268-24.8902588,31.0808716-27.0906372,53.9584351
	c-2.1874695,22.7402954,4.0512085,43.9699097,16.749115,57.4172974
	c1.7394104,10.2042847,7.5535278,23.5578613,13.8074646,31.7059937
	c1.2561951,17.2358398,8.5974121,34.2371216,20.8284912,48.1255493
	c12.3143616,13.9833984,28.5532532,23.6164551,45.9286804,27.2935181
	c10.4951782,9.8171997,21.6647644,16.7268066,36.7330933,22.7391357
	c6.5776672,6.6304321,25.7511597,22.5796509,57.7797241,22.5796509c32.0274048,0,51.2020874-15.9491577,57.7808838-22.5796509
	c15.0683594-6.0134888,26.2390747-12.9230957,36.7330933-22.7391357
	c17.3742676-3.677063,33.6131592-13.3101196,45.9274902-27.2935181
	c12.2310791-13.8883667,19.5723267-30.8896484,20.8284912-48.1243896
	c6.255127-8.149353,12.0692139-21.5028687,13.8074341-31.7072144c12.697876-13.4473877,18.9365845-34.677002,16.7503052-57.4161377
	L703.8273315,549.0422974z"/>
<path class="st2" d="M558.5606079,298.0291138c1.3261108-0.4040833,2.6222534,0.7063293,2.4953003,2.0865173
	c-0.6229858,5.8750305,2.9313354,5.1352234,3.7712402,4.0910645c9.2529907-11.5050049,19.0535889-14.1225586,27.8286743-13.3497925
	c1.5427246,0.1356812,2.2797852,1.9344482,1.3439331,3.168335c-3.4866333,5.1716614,0.2678833,6.1549377,1.6578369,5.2258911
	c14.2408447-8.903656,27.8251953-8.9198608,33.0390625-5.1800232c1.0108032,0.7251587,1.0471191,2.2234192,0.1168213,3.0495605
	c-5.2700195,4.4897461-2.3198853,6.7247009-0.4586792,6.0433044c14.4577637-5.1022644,34.4175415-0.5884399,41.380249,5.2984619
	c0.9229126,0.7802734,0.9536133,2.1929016,0.0494995,2.9946289c-8.8002319,7.7983093-13.125,14.0627441-15.0974731,26.3361511
	c-0.3927612,3.4627075,5.3533936,2.7342529,7.7782593,2.1104126c1.2068481-0.3106079,2.4133301,0.5875549,2.446106,1.8334656
	c0.218689,8.3232422-7.6530151,17.4722595-19.3650513,25.296051c-1.5685425,1.0477905-1.3456421,3.5619507,2.234436,3.654541
	c1.6166992,0.1213684,2.3641968,1.6253967,1.6658936,2.9219055c-4.1765137,7.7524414-9.8563843,15.0514221-29.2019043,20.0636902
	c-1.8433838,0.4776917-1.9899292,2.9927063-0.2731323,3.7398376s1.7356567,2.390686,0.6173706,3.3512573
	c-19.2614136,16.5477905-68.0858154,10.0241699-74.2832642-17.8268433
	c-0.1234741-0.5559998,0.0097656-1.1374512,0.3512573-1.5933228c11.5853882-15.4541016,38.515564-45.6973572,80.9673462-61.6044006
	c1.7230835-0.6456299,1.0575562-3.2345886-0.7624512-2.9642639c-41.2327271,6.124939-70.2678833,29.0423279-87.9297485,53.0097961
	c-0.5831909,0.7915955-1.6456299,1.0223389-2.5197144,0.5713196
	C505.1160278,354.1983032,530.8156128,306.4868164,558.5606079,298.0291138z"/>
<path class="st2" d="M374.5534668,373.6095886c-0.6986389-1.2964783,0.0491943-2.8005066,1.6655273-2.9219055
	c3.5804443-0.0926208,3.8033142-2.6067505,2.2344055-3.654541c-11.7120056-7.823761-19.5837402-16.9727783-19.3646851-25.2960205
	c0.0327759-1.2459106,1.2389526-2.1440735,2.4461365-1.8334656c2.4244995,0.6238403,8.1706543,1.3522949,7.7778931-2.1104126
	c-1.9721069-12.273407-6.2972412-18.5378723-15.0971069-26.3361511c-0.9044495-0.8017273-0.8737488-2.2143555,0.0491943-2.9946289
	c6.962738-5.8868713,26.9224854-10.4006958,41.3806152-5.2984619c1.8608398,0.6813965,4.8110046-1.5535583-0.4586792-6.0433044
	c-0.9302368-0.8261414-0.8943176-2.3244019,0.1164856-3.0495605c5.2142029-3.7398376,18.7982483-3.7236023,33.0390625,5.1800232
	c1.3899536,0.9290161,5.1444397-0.0542297,1.6582031-5.2258911c-0.9358215-1.2338867-0.198822-3.0326538,1.3435669-3.168335
	c8.7754517-0.7727661,18.5760498,1.8448181,27.82901,13.3497925c0.8395691,1.0441284,4.3941956,1.7839355,3.7712402-4.0910645
	c-0.1269531-1.380188,1.1691895-2.4906006,2.4949646-2.0865173c27.7453003,8.4577026,53.4449158,56.16922,22.1481018,72.3275452
	c-0.8737488,0.4509888-1.9365234,0.2202759-2.5197449-0.5713196
	c-17.6618347-23.9674683-46.6966858-46.8848572-87.9293823-53.0097961
	c-1.8200378-0.2703247-2.4859009,2.3186646-0.7624817,2.9642639c42.4517822,15.9070435,69.381958,46.1502686,80.9673462,61.6044006
	c0.3414612,0.4558716,0.4743652,1.037323,0.3508911,1.5933228c-6.1974792,27.8510132-55.0218506,34.3746033-74.2832642,17.8268433
	c-1.1182556-0.9606018-1.0990601-2.6041565,0.6173706-3.3512573c1.7167969-0.7471313,1.5703125-3.262146-0.2727661-3.7398376
	c-19.34552-5.0122681-25.0257263-12.3112488-29.2019043-20.0636902V373.6095886z"/>
<path class="st2" d="M635.3039551,458.751709c8.0252075,21.3497009,1.7733154,31.6147156-17.2645874,20.7462769
	c-15.034668-8.1988831-29.244812-20.15979-39.9836426-33.5151672
	c-14.3398438-17.0376587-5.0199585-24.6268616,17.5690918-20.5345764
	c16.8369141,4.0841064,32.762085,17.4391479,39.6791382,33.3034363V458.751709z"/>
<path class="st2" d="M549.914856,434.7331543c27.2252808,22.628418-3.9675903,38.6472473-37.914917,38.6472473
	s-65.1398315-16.0188293-37.9145813-38.6472473c16.3112793-12.7903442,31.9078979-13.3449097,37.9145813-13.3449097
	C518.006958,421.3882446,533.6032104,421.9428406,549.914856,434.7331543z"/>
<path class="st2" d="M388.6962891,458.751709c6.9167175-15.8643188,22.8422241-29.2193298,39.6788025-33.3034363
	c22.5889893-4.0922852,31.9093018,3.4968872,17.5690613,20.5345764
	c-10.7388611,13.3553772-24.9489746,25.3162537-39.9836731,33.5151672
	c-19.0375061,10.8684387-25.2893982,0.6034241-17.2642212-20.7462769L388.6962891,458.751709z"/>
<path class="st2" d="M349.3153381,577.3828735c-6.2888794-16.4581299-4.7217102-36.4761353,4.5246277-51.8659058
	c10.0586853-17.1144104,20.1822815-16.4330139,24.2004395-1.9342651c5.1782837,19.144104,3.1820984,41.9793091-5.240387,59.934021
	c-7.4489746,14.8060303-16.7654419,9.8024902-23.4847107-6.1338501H349.3153381z"/>
<path class="st2" d="M421.8483276,688.2374878c-24.144989-5.0879517-44.6520081-29.4124146-45.578064-54.0772705
	C380.0467224,546.2937622,506.6807251,703.2097168,421.8483276,688.2374878z"/>
<path class="st2" d="M424.4259338,578.8014526c-21.2359009-12.260498-26.8557434-42.2839355-12.5517578-67.0592651
	c14.3039856-24.775177,43.114624-34.9203796,64.3505249-22.6597595
	c21.2359009,12.2604675,26.8557434,42.2840881,12.5517578,67.0592957
	C474.4724731,580.9168701,445.6611633,591.0621338,424.4259338,578.8014526z"/>
<path class="st2" d="M547.4359741,721.7714844c-9.9683838,7.1912231-22.2032471,11.430542-35.4360046,11.430542
	s-25.4676514-4.2393188-35.4360046-11.430542c-21.0420532-14.5308228,0.1269531-31.250061,35.4360046-31.250061
	S568.4783936,707.2406616,547.4359741,721.7714844z"/>
<ellipse class="st2" cx="511.999939" cy="626.2558594" rx="49.2922363" ry="42.2507324"/>
<path class="st2" d="M535.2233887,556.1417236c-14.3039551-24.7751465-8.6841431-54.7987976,12.5517578-67.0592651
	c21.2359009-12.2606506,50.0465698-2.1154175,64.3505249,22.6597595
	c14.3039551,24.7753601,8.6841431,54.7987976-12.5517578,67.0592957
	c-21.2352295,12.2606201-50.0465698,2.1154175-64.3505249-22.659729V556.1417236z"/>
<path class="st2" d="M602.1515503,688.2374878c-84.8323975,14.972229,41.8016357-141.9437256,45.5784302-54.0772705
	C646.803894,658.8250732,626.296875,683.1495361,602.1515503,688.2374878z"/>
<path class="st2" d="M674.6848755,577.3828735c-6.7196655,15.9363403-16.0360718,20.9398804-23.4850464,6.1338501
	c-8.4224854-17.9546509-10.418335-40.789917-5.2400513-59.93396c4.0178223-14.4987488,14.1414185-15.1801453,24.2001343,1.9342651
	c9.2467041,15.3897705,10.8134766,35.4077759,4.5249634,51.8659058V577.3828735z"/>
</svg>
